<svg width="352" height="350" viewBox="0 0 352 350" fill="none" xmlns="http://www.w3.org/2000/svg">
<path d="M43.7084 0.00221751L30.6071 2.3134L37.4985 41.4017C33.6028 42.0084 29.7101 42.6341 25.8206 43.279L21.0142 16.0134L7.91285 18.3224L12.7096 45.5178C8.46955 46.2647 4.23296 47.0314 0 47.8178L2.43313 60.897C6.66672 60.1092 10.8567 59.3523 15.0186 58.6176L20.2337 88.1966L33.3358 85.8876L28.1325 56.3752C32.0527 55.7248 35.9449 55.1002 39.8089 54.4979L47.0351 95.4812L60.1372 93.1708L52.9701 52.5274C59.1661 51.6391 65.3699 50.8063 71.5808 50.0292C83.0665 84.3163 97.2255 123.936 121.054 149.4C127.499 171.87 128.342 184.441 145.016 215.483C128.342 243.569 116.516 290.872 110.019 334.479L74.5424 338.913V350H128.342C140.167 314.523 175.644 243.569 175.644 243.569C175.644 243.569 211.121 314.523 222.947 350H276.747V338.913L241.27 334.479C234.773 290.872 222.947 243.569 203.73 215.483C222.947 184.441 221.598 171.443 230.213 149.424C254.049 123.96 268.217 84.3274 279.708 50.0307C285.853 50.7994 292.049 51.6272 298.319 52.5289L291.152 93.1723L304.255 95.4812L311.482 54.4979C315.347 55.1002 319.238 55.7248 323.159 56.3752L317.955 85.8876L331.057 88.1973L336.272 58.6184C340.433 59.3523 344.624 60.1092 348.857 60.897L351.29 47.8178C347.018 47.0233 342.786 46.2583 338.582 45.517L343.378 18.3209L330.276 16.0112L325.469 43.2768C321.58 42.6311 317.687 42.0053 313.791 41.3995L320.683 2.31118L307.581 0L300.629 39.4312C256.933 33.1533 216.282 29.9973 175.644 29.9973C135.009 29.9973 94.3556 33.1533 50.6604 39.4334L43.7084 0.00221751V0.00221751ZM175.644 43.2568C201.905 43.2568 228.173 44.6094 255.336 47.2946C244.928 73.0583 226.915 101.622 208.623 122.659C200.991 133.642 189.207 140.833 175.644 140.833C162.082 140.833 150.298 133.642 142.666 122.659C124.374 101.622 106.361 73.0575 95.9528 47.2946C123.115 44.6094 149.383 43.2568 175.644 43.2568ZM175.644 58.0537C160.245 58.0537 146.819 73.0132 146.819 92.7916C146.819 112.57 160.245 127.53 175.644 127.53C191.044 127.53 204.47 112.57 204.47 92.7916C204.47 73.0132 191.044 58.0537 175.644 58.0537Z" fill="#C6DE41"/>
</svg>
