<svg width="238" height="219" viewBox="0 0 238 219" fill="none" xmlns="http://www.w3.org/2000/svg">
<path d="M0.492868 149.125C-3.06494 122.562 13.5382 79.9843 21.4444 22.5624C23.0257 12.4061 76.7882 1.46863 102.088 1.46863C108.413 1.46863 113.948 30.7655 112.366 40.9218C111.18 48.3436 100.507 46.3905 100.507 46.3905C96.9491 56.1561 86.2757 52.2499 86.2757 52.2499C83.1132 60.453 73.6257 56.5468 73.6257 56.5468C69.6726 64.3593 60.9757 60.453 60.9757 60.453C53.0694 94.4374 67.696 91.3124 78.3694 142.484C78.3694 142.484 81.5319 142.094 89.8335 125.297C123.83 57.7186 243.215 79.203 236.099 151.859C234.518 167.875 251.912 194.437 187.476 214.359C136.48 229.984 74.021 199.906 74.021 199.906C52.6741 206.547 11.1663 206.156 9.98037 190.531C8.79443 172.172 2.46943 162.797 0.492868 149.125" fill="#C6DE41"/>
<path d="M107.623 173.734C140.434 185.844 189.848 173.344 217.915 160.453C205.66 189.75 140.434 205.375 107.623 173.734M91.4148 12.4062C89.0429 8.10935 84.2992 8.49998 81.1367 9.67185C81.532 4.98435 92.996 1.46872 91.4148 12.4062Z" fill="#C6DE41"/>
<path d="M115.529 29.203C114.343 20.6093 111.576 12.0155 106.437 4.98425C109.204 12.4061 110.785 20.2186 110.785 28.0311C110.785 31.5468 111.576 44.0468 105.251 42.4843C101.298 41.3124 101.298 38.1874 100.112 34.6718C98.5304 29.203 95.3679 23.3436 95.7632 17.8749C94.182 23.3436 96.1585 29.9843 96.5538 35.453C96.9491 38.578 99.321 47.5624 94.9726 48.7343C92.6007 49.5155 89.8335 47.953 87.857 46.7811C87.0663 46.3905 86.671 43.2655 86.2757 42.0936C84.6945 36.6249 81.532 30.3749 81.9273 24.5155C80.346 29.5936 81.9273 35.8436 82.3226 41.3124C82.7179 44.4374 84.2991 51.8593 80.346 53.4218C75.6023 55.7655 75.207 50.2968 74.4163 47.5624C72.8351 42.4843 70.4632 36.6249 70.4632 31.1561C68.882 37.7968 70.8585 45.6093 70.8585 52.2499C70.8585 55.7655 63.3476 58.4999 60.5804 56.5468C56.232 53.4218 55.4413 45.6093 54.6507 40.5311C55.8366 42.0936 57.8132 44.4374 60.1851 44.0468C58.2085 41.703 57.0226 38.1874 55.8366 35.453C54.6507 33.1093 51.8835 28.0311 48.721 28.0311C49.1163 28.8124 51.8835 35.453 51.4882 35.8436C50.3023 37.7968 49.1163 40.1405 47.5351 42.0936C46.3491 43.6561 42.7913 49.1249 40.0241 47.5624C36.8616 45.6093 36.071 40.9218 35.2804 37.7968C35.6757 41.703 35.2804 47.5624 39.2335 49.9061C42.7913 52.2499 47.1398 48.7343 49.5116 46.3905C50.3023 54.203 53.8601 64.7499 63.7429 63.9686C65.7195 63.9686 68.0913 63.1874 70.0679 62.4061C71.6492 61.6249 73.6257 59.6718 75.207 60.453C79.5554 61.6249 83.9038 60.8436 87.0663 57.7186C88.6476 56.1561 88.2523 55.3749 90.2288 55.7655C92.6007 56.1561 94.9726 56.5467 96.9491 55.7655C98.9257 55.3749 100.507 54.203 101.693 52.6405C102.484 51.8593 102.879 51.078 103.274 49.9061C104.065 48.3436 104.855 49.1249 106.437 49.1249C116.715 49.1249 116.319 36.2343 115.529 29.203" fill="#C6DE41"/>
<path d="M105.646 6.93742C103.274 2.64054 98.5304 3.03117 95.3679 4.20304C95.7632 -0.0938317 107.623 -3.60946 105.646 6.93742ZM79.9507 18.2655C77.5788 13.9687 72.8351 14.3593 69.6726 15.5312C70.0679 10.8437 81.5319 7.32804 79.9507 18.2655ZM66.5101 24.5155C64.1382 20.2187 59.3944 20.6093 56.2319 21.7812C56.6272 17.0937 68.4866 13.578 66.5101 24.5155Z" fill="#C6DE41"/>
</svg>
