<svg width="226" height="184" viewBox="0 0 226 184" fill="none" xmlns="http://www.w3.org/2000/svg">
<path d="M53.185 0.818018C38.4879 2.99877 32.8175 6.15446 21.1401 18.6589C8.05613 32.6716 -0.36064 55.0453 0.0118811 76.351C0.0118811 99.4687 7.3254 120.155 18.843 134.011V177.356C18.843 180.829 21.6581 183.645 25.131 183.645H76.0738C79.5467 183.645 82.3618 180.83 82.3618 177.356V132.625C94.3054 115.994 101.225 93.5261 100.607 86.2698C99.8145 76.993 90.1967 62.6092 78.5389 66.0802C69.0155 68.9168 63.3361 82.1568 57.4106 81.4571C52.3937 80.8646 54.2368 71.6465 59.64 62.676C68.3997 48.1358 103.307 68.6635 106.593 41.1962C109.88 13.7298 86.4023 -4.11204 53.185 0.818018ZM69.7863 137.455V171.069H31.419V137.455H69.7863Z" fill="#C6DE41"/>
<path d="M204.859 18.6599C193.183 6.15398 187.512 2.99972 172.815 0.818016C139.596 -4.11204 116.121 13.7298 119.406 41.1972C122.692 68.6635 157.599 48.1367 166.359 62.676C171.762 71.6475 173.605 80.8647 168.589 81.4571C162.663 82.1577 156.983 68.9178 147.461 66.0812C135.803 62.6092 126.185 76.993 125.393 86.2698C124.773 93.5318 131.703 116.025 143.663 132.661V177.356C143.663 180.815 146.467 183.619 149.925 183.619H200.869C204.327 183.619 207.131 180.815 207.131 177.356V134.041C218.663 120.185 225.987 99.4854 225.987 76.3505C226.361 55.0453 217.943 32.6716 204.859 18.6599ZM194.606 171.094H156.19V137.798H194.606V171.094V171.094Z" fill="#C6DE41"/>
</svg>
