<svg width="303" height="288" viewBox="0 0 303 288" fill="none" xmlns="http://www.w3.org/2000/svg">
<path d="M136.349 188.072V257.55H166.649V188.072C166.649 180.104 163.407 172.286 157.771 166.65L127.471 136.35L166.649 97.1724L196.949 127.472C202.585 133.108 210.402 136.35 218.371 136.35H272.699V106.05H218.371L162.21 49.8893C160.805 48.4811 159.135 47.364 157.297 46.6018C155.459 45.8396 153.489 45.4473 151.499 45.4473C149.51 45.4473 147.539 45.8396 145.701 46.6018C143.864 47.364 142.194 48.4811 140.788 49.8893L90.8992 99.7782C85.1725 105.505 82.0213 113.11 82.0213 121.2C82.0213 129.29 85.1725 136.896 90.8992 142.622L136.349 188.072Z" fill="#C6DE41"/>
<path d="M212.1 60.6C228.834 60.6 242.4 47.0342 242.4 30.3C242.4 13.5658 228.834 0 212.1 0C195.366 0 181.8 13.5658 181.8 30.3C181.8 47.0342 195.366 60.6 212.1 60.6Z" fill="#C6DE41"/>
<path d="M242.4 166.65C208.979 166.65 181.8 193.829 181.8 227.25C181.8 260.671 208.979 287.85 242.4 287.85C275.821 287.85 303 260.671 303 227.25C303 193.829 275.821 166.65 242.4 166.65ZM242.4 257.55C225.69 257.55 212.1 243.961 212.1 227.25C212.1 210.54 225.69 196.95 242.4 196.95C259.11 196.95 272.7 210.54 272.7 227.25C272.7 243.961 259.11 257.55 242.4 257.55ZM60.6 287.85C94.0209 287.85 121.2 260.671 121.2 227.25C121.2 193.829 94.0209 166.65 60.6 166.65C27.1791 166.65 0 193.829 0 227.25C0 260.671 27.1791 287.85 60.6 287.85ZM60.6 196.95C77.3104 196.95 90.9 210.54 90.9 227.25C90.9 243.961 77.3104 257.55 60.6 257.55C43.8895 257.55 30.3 243.961 30.3 227.25C30.3 210.54 43.8895 196.95 60.6 196.95Z" fill="#C6DE41"/>
</svg>
