<svg width="512" height="512" viewBox="0 0 512 512" fill="none" xmlns="http://www.w3.org/2000/svg">
<g clip-path="url(#clip0_9_108)">
<path d="M512 256C512 397.4 397.4 512 256 512C114.6 512 0 397.4 0 256C0 114.6 114.6 0 256 0C397.4 0 512 114.6 512 256ZM288 96C288 78.3 273.7 64 256 64C238.3 64 224 78.3 224 96C224 113.7 238.3 128 256 128C273.7 128 288 113.7 288 96ZM256 416C291.3 416 320 387.3 320 352C320 334.6 313.1 318.9 301.9 307.4L366 161.7C371.3 149.6 365.8 135.4 353.7 130.1C341.6 124.8 327.4 130.3 322.1 142.4L257.9 288H256C220.7 288 192 316.7 192 352C192 387.3 220.7 416 256 416ZM176 144C176 126.3 161.7 112 144 112C126.3 112 112 126.3 112 144C112 161.7 126.3 176 144 176C161.7 176 176 161.7 176 144ZM96 288C113.7 288 128 273.7 128 256C128 238.3 113.7 224 96 224C78.3 224 64 238.3 64 256C64 273.7 78.3 288 96 288ZM448 256C448 238.3 433.7 224 416 224C398.3 224 384 238.3 384 256C384 273.7 398.3 288 416 288C433.7 288 448 273.7 448 256Z" fill="#C6DE41"/>
</g>
<defs>
<clipPath id="clip0_9_108">
<rect width="512" height="512" fill="white"/>
</clipPath>
</defs>
</svg>
