<?xml version="1.0" encoding="UTF-8"?>
<svg xmlns="http://www.w3.org/2000/svg" xmlns:xlink="http://www.w3.org/1999/xlink" width="512px" height="512px" viewBox="0 0 512 512" version="1.1">
<g id="surface1">
<path style=" stroke:none;fill-rule:nonzero;fill:rgb(77.647059%,87.058824%,25.490196%);fill-opacity:1;" d="M 512 256 C 512 397.398438 397.398438 512 256 512 C 114.601562 512 0 397.398438 0 256 C 0 114.601562 114.601562 0 256 0 C 397.398438 0 512 114.601562 512 256 Z M 288 96 C 288 78.300781 273.699219 64 256 64 C 238.300781 64 224 78.300781 224 96 C 224 113.699219 238.300781 128 256 128 C 273.699219 128 288 113.699219 288 96 Z M 256 416 C 291.300781 416 320 387.300781 320 352 C 320 334.601562 313.101562 318.898438 301.898438 307.398438 L 366 161.699219 C 371.300781 149.601562 365.800781 135.398438 353.699219 130.101562 C 341.601562 124.800781 327.398438 130.300781 322.101562 142.398438 L 257.898438 288 L 256 288 C 220.699219 288 192 316.699219 192 352 C 192 387.300781 220.699219 416 256 416 Z M 176 144 C 176 126.300781 161.699219 112 144 112 C 126.300781 112 112 126.300781 112 144 C 112 161.699219 126.300781 176 144 176 C 161.699219 176 176 161.699219 176 144 Z M 96 288 C 113.699219 288 128 273.699219 128 256 C 128 238.300781 113.699219 224 96 224 C 78.300781 224 64 238.300781 64 256 C 64 273.699219 78.300781 288 96 288 Z M 448 256 C 448 238.300781 433.699219 224 416 224 C 398.300781 224 384 238.300781 384 256 C 384 273.699219 398.300781 288 416 288 C 433.699219 288 448 273.699219 448 256 Z M 448 256 "/>
</g>
</svg>
