<svg width="424" height="477" viewBox="0 0 424 477" fill="none" xmlns="http://www.w3.org/2000/svg">
<path d="M263.145 238.6C268.645 229.568 274.33 220.229 279.945 210.6C298.739 178.382 302.188 145.919 290.199 114.111C266.008 49.9329 185.142 10.8299 166.421 4.59095L153.257 0.199951L132.711 41.2999L142.626 49.4C142.737 49.489 153.75 59.112 154.484 73.7C155.111 86.153 148.284 99.61 134.198 113.7C124.416 123.481 113.68 132.939 102.313 142.951C54.487 185.069 0.280029 232.82 0.280029 323.154C0.280029 324.395 0.291696 325.628 0.315029 326.854C0.661627 346.788 4.94302 366.458 12.9133 384.732C20.8836 403.007 32.3857 419.527 46.759 433.344C75.6213 461.417 114.32 477.085 154.583 477H246.683L235.314 453.928C189.121 360.177 221.788 306.525 263.145 238.6ZM154.583 445C88.383 445 33.533 391.733 32.309 326.261C32.2904 325.23 32.2807 324.195 32.28 323.154C32.28 247.276 78.636 206.441 123.466 166.954C134.705 157.054 146.328 146.816 156.825 136.317C177.579 115.564 187.544 93.9519 186.444 72.0849C185.964 62.818 183.504 53.7614 179.23 45.525C207.07 60.736 246.753 89.5779 260.257 125.402C268.801 148.067 266.2 170.662 252.306 194.481C246.841 203.85 241.234 213.057 235.813 221.962C196.132 287.131 158.49 348.943 196.361 445H154.583Z" fill="#C6DE41"/>
<path d="M420.243 322.129C419.976 321.072 419.698 320.01 419.409 318.944C407.863 276.612 343.952 222.182 336.703 216.115L322.146 203.933L312.6 220.341C290.847 257.741 272.179 291.853 264.041 330.553C254.762 374.687 261.008 419.542 283.141 467.683L287.422 477H298.3C317.46 477.055 336.376 472.711 353.592 464.302C370.808 455.894 385.864 443.645 397.6 428.5C409.264 413.685 417.371 396.391 421.297 377.949C425.223 359.507 424.862 340.41 420.243 322.129V322.129ZM372.363 408.812C364.607 418.825 354.894 427.154 343.816 433.291C332.737 439.429 320.525 443.247 307.923 444.512C276.382 368.612 294.992 316.877 330.553 253.398C354.195 275.392 383.008 307.088 388.536 327.359C388.769 328.214 388.992 329.066 389.205 329.913C392.624 343.476 392.883 357.643 389.963 371.322C387.043 385.001 381.022 397.827 372.363 408.812V408.812Z" fill="#C6DE41"/>
</svg>
