<?xml version="1.0" encoding="UTF-8"?>
<svg xmlns="http://www.w3.org/2000/svg" xmlns:xlink="http://www.w3.org/1999/xlink" width="512px" height="512px" viewBox="0 0 512 512" version="1.1">
<g id="surface1">
<path style=" stroke:none;fill-rule:nonzero;fill:rgb(77.647059%,87.058824%,25.490196%);fill-opacity:1;" d="M 317.761719 256.105469 C 324.402344 246.414062 331.265625 236.386719 338.046875 226.054688 C 360.742188 191.472656 364.90625 156.625 350.429688 122.484375 C 321.21875 53.597656 223.566406 11.625 200.960938 4.929688 L 185.066406 0.214844 L 160.253906 44.332031 L 172.226562 53.023438 C 172.363281 53.121094 185.660156 63.449219 186.546875 79.109375 C 187.304688 92.472656 179.058594 106.917969 162.050781 122.042969 C 150.238281 132.542969 137.273438 142.695312 123.546875 153.441406 C 65.796875 198.648438 0.339844 249.902344 0.339844 346.867188 C 0.339844 348.199219 0.351562 349.519531 0.378906 350.835938 C 0.800781 372.234375 5.96875 393.347656 15.59375 412.960938 C 25.21875 432.578125 39.105469 450.308594 56.464844 465.140625 C 91.316406 495.273438 138.046875 512.089844 186.667969 512 L 297.882812 512 L 284.152344 487.234375 C 228.371094 386.605469 267.820312 329.015625 317.761719 256.105469 Z M 186.667969 477.652344 C 106.726562 477.652344 40.492188 420.476562 39.015625 350.199219 C 38.992188 349.09375 38.980469 347.984375 38.980469 346.867188 C 38.980469 265.421875 94.957031 221.589844 149.089844 179.203125 C 162.664062 168.578125 176.699219 157.589844 189.375 146.320312 C 214.433594 124.042969 226.46875 100.84375 225.140625 77.375 C 224.558594 67.425781 221.589844 57.707031 216.429688 48.867188 C 250.046875 65.191406 297.964844 96.152344 314.273438 134.601562 C 324.589844 158.929688 321.449219 183.183594 304.671875 208.75 C 298.070312 218.808594 291.300781 228.691406 284.753906 238.25 C 236.839844 308.199219 191.382812 374.546875 237.113281 477.652344 Z M 186.667969 477.652344 "/>
<path style=" stroke:none;fill-rule:nonzero;fill:rgb(77.647059%,87.058824%,25.490196%);fill-opacity:1;" d="M 507.464844 345.765625 C 507.140625 344.628906 506.804688 343.492188 506.457031 342.347656 C 492.515625 296.910156 415.339844 238.484375 406.585938 231.972656 L 389.007812 218.898438 L 377.480469 236.507812 C 351.210938 276.652344 328.667969 313.269531 318.84375 354.808594 C 307.636719 402.179688 315.179688 450.324219 341.90625 502 L 347.074219 512 L 360.210938 512 C 383.347656 512.058594 406.191406 507.394531 426.980469 498.371094 C 447.769531 489.34375 465.949219 476.199219 480.121094 459.941406 C 494.207031 444.039062 503.996094 425.476562 508.734375 405.679688 C 513.476562 385.886719 513.039062 365.386719 507.464844 345.765625 Z M 449.644531 438.808594 C 440.28125 449.554688 428.550781 458.496094 415.175781 465.082031 C 401.796875 471.671875 387.050781 475.769531 371.832031 477.128906 C 333.746094 395.660156 356.214844 340.128906 399.160156 271.992188 C 427.707031 295.597656 462.5 329.621094 469.175781 351.378906 C 469.457031 352.296875 469.726562 353.210938 469.984375 354.121094 C 474.113281 368.679688 474.425781 383.886719 470.898438 398.566406 C 467.371094 413.25 460.101562 427.019531 449.644531 438.808594 Z M 449.644531 438.808594 "/>
</g>
</svg>
