<?xml version="1.0" encoding="UTF-8"?>
<svg xmlns="http://www.w3.org/2000/svg" xmlns:xlink="http://www.w3.org/1999/xlink" width="512px" height="512px" viewBox="0 0 512 512" version="1.1">
<g id="surface1">
<path style=" stroke:none;fill-rule:nonzero;fill:rgb(77.647059%,87.058824%,25.490196%);fill-opacity:1;" d="M 460.785156 0 L 460.757812 491.96875 C 468.191406 506.464844 475.882812 512.039062 482.328125 512 C 488.730469 511.964844 496.335938 506.324219 503.625 492.265625 L 483.722656 240.984375 L 483.488281 237.925781 L 485.082031 235.484375 C 507.953125 200.710938 515.945312 140.628906 509.421875 89.808594 C 506.160156 64.398438 499.332031 41.398438 489.769531 25.140625 C 481.75 11.507812 472.183594 2.808594 460.789062 0 Z M 58.558594 0.00390625 L 58.542969 85.925781 L 44.976562 85.90625 L 44.976562 0.0117188 L 29.523438 0.0117188 L 29.523438 85.910156 L 15.9375 85.910156 L 15.9375 0.0117188 L 0.199219 0.0117188 L 0.199219 132.140625 C 0.199219 146.753906 6.929688 154.859375 17.527344 159.871094 L 21.914062 161.945312 L 21.816406 167.539062 C 19.65625 275.789062 17.519531 384.039062 15.375 492.285156 C 22.761719 506.609375 30.351562 512.035156 36.671875 512 C 42.992188 511.964844 50.574219 506.398438 57.867188 492.246094 C 55.367188 384.027344 52.867188 275.804688 50.371094 167.582031 L 50.242188 161.949219 L 54.640625 159.894531 C 65.792969 154.640625 73.046875 145.71875 73.046875 132.148438 L 73.046875 0.00390625 Z M 256 49.921875 C 209.875 49.921875 165.644531 71.632812 133.027344 110.28125 C 100.414062 148.925781 82.09375 201.34375 82.09375 256 C 82.09375 310.65625 100.414062 363.074219 133.027344 401.71875 C 165.644531 440.367188 209.875 462.078125 256 462.078125 C 302.125 462.078125 346.355469 440.367188 378.972656 401.71875 C 411.585938 363.074219 429.90625 310.65625 429.90625 256 C 429.90625 201.34375 411.585938 148.925781 378.972656 110.28125 C 346.355469 71.632812 302.125 49.921875 256 49.921875 Z M 256 49.921875 "/>
</g>
</svg>
