<svg width="474" height="400" viewBox="0 0 474 400" fill="none" xmlns="http://www.w3.org/2000/svg">
<path d="M426.588 0L426.562 384.352C433.443 395.675 440.562 400.029 446.532 400C452.456 399.972 459.499 395.566 466.246 384.582L447.82 188.27L447.605 185.879L449.08 183.973C470.254 156.804 477.653 109.865 471.613 70.163C468.593 50.311 462.271 32.343 453.418 19.641C445.994 8.989 437.138 2.194 426.59 0H426.588V0ZM54.213 0.00400162L54.197 67.131L41.637 67.115V0.00799942H27.332L27.334 67.118H14.756V0.00799942H0.186035V103.236C0.185035 114.653 6.41604 120.984 16.226 124.898L20.286 126.52L20.196 130.89C18.196 215.46 16.219 300.029 14.234 384.598C21.074 395.79 28.1 400.028 33.95 400C39.8 399.972 46.82 395.623 53.573 384.568C51.258 300.021 48.943 215.472 46.632 130.924L46.512 126.524L50.585 124.918C60.909 120.812 67.624 113.844 67.624 103.242V0.00400162H54.214H54.213ZM237 39C194.3 39 153.349 55.9625 123.156 86.1558C92.9625 116.349 76 157.3 76 200C76 242.7 92.9625 283.651 123.156 313.844C153.349 344.038 194.3 361 237 361C279.7 361 320.651 344.038 350.844 313.844C381.038 283.651 398 242.7 398 200C398 157.3 381.038 116.349 350.844 86.1558C320.651 55.9625 279.7 39 237 39V39Z" fill="#C6DE41"/>
</svg>
