<svg width="478" height="524" viewBox="0 0 478 524" fill="none" xmlns="http://www.w3.org/2000/svg">
<path d="M209.321 0C260.149 0.003314 309.241 18.4961 347.439 52.0289C385.637 85.5617 410.333 131.845 416.92 182.244L475.793 274.845C479.665 280.942 478.88 290.021 469.906 293.894L418.647 315.821V392.486C418.647 406.365 413.133 419.676 403.319 429.49C393.505 439.304 380.195 444.818 366.315 444.818H314.01L313.984 523.315H78.4922V426.659C78.4922 395.783 67.0839 366.556 45.942 340.181C21.2875 309.397 5.83108 272.275 1.35351 233.091C-3.12406 193.906 3.55938 154.254 20.6338 118.703C37.7083 83.1509 64.4791 53.1461 97.8619 32.145C131.245 11.1439 169.882 0.0009723 209.321 0V0ZM195.453 150.793C191.23 146.419 186.178 142.93 180.592 140.529C175.006 138.128 168.998 136.863 162.918 136.809C156.838 136.755 150.808 137.913 145.18 140.214C139.552 142.515 134.439 145.914 130.139 150.212C125.838 154.511 122.437 159.623 120.134 165.25C117.83 170.877 116.67 176.906 116.722 182.986C116.774 189.066 118.036 195.075 120.434 200.662C122.833 206.249 126.32 211.302 130.693 215.527L209.321 294.181L287.949 215.527C292.322 211.302 295.809 206.249 298.208 200.662C300.606 195.075 301.868 189.066 301.92 182.986C301.971 176.906 300.812 170.877 298.508 165.25C296.205 159.623 292.804 154.511 288.503 150.212C284.203 145.914 279.09 142.515 273.462 140.214C267.834 137.913 261.804 136.755 255.724 136.809C249.644 136.863 243.636 138.128 238.05 140.529C232.464 142.93 227.412 146.419 223.189 150.793L209.321 164.661L195.453 150.793V150.793Z" fill="#C6DE41"/>
</svg>
