<?xml version="1.0" encoding="UTF-8"?>
<svg xmlns="http://www.w3.org/2000/svg" xmlns:xlink="http://www.w3.org/1999/xlink" width="512px" height="512px" viewBox="0 0 512 512" version="1.1">
<g id="surface1">
<path style=" stroke:none;fill-rule:nonzero;fill:rgb(77.647059%,87.058824%,25.490196%);fill-opacity:1;" d="M 224.210938 0 C 278.652344 0.00390625 331.238281 18.074219 372.152344 50.835938 C 413.066406 83.601562 439.519531 128.824219 446.574219 178.070312 L 509.636719 268.550781 C 513.785156 274.507812 512.941406 283.378906 503.332031 287.164062 L 448.425781 308.589844 L 448.425781 383.496094 C 448.425781 397.058594 442.519531 410.066406 432.007812 419.65625 C 421.496094 429.242188 407.238281 434.632812 392.371094 434.632812 L 336.34375 434.632812 L 336.316406 511.332031 L 84.074219 511.332031 L 84.074219 416.886719 C 84.074219 386.71875 71.855469 358.160156 49.210938 332.390625 C 22.800781 302.3125 6.246094 266.039062 1.449219 227.753906 C -3.347656 189.464844 3.8125 150.722656 22.101562 115.984375 C 40.390625 81.246094 69.066406 51.929688 104.824219 31.410156 C 140.582031 10.890625 181.964844 0 224.210938 0 Z M 209.355469 147.339844 C 204.832031 143.066406 199.421875 139.65625 193.4375 137.3125 C 187.453125 134.964844 181.019531 133.730469 174.507812 133.675781 C 167.992188 133.625 161.535156 134.753906 155.507812 137.003906 C 149.476562 139.25 144 142.574219 139.394531 146.773438 C 134.789062 150.972656 131.144531 155.96875 128.679688 161.464844 C 126.210938 166.964844 124.96875 172.855469 125.023438 178.796875 C 125.082031 184.734375 126.433594 190.609375 129 196.066406 C 131.570312 201.527344 135.304688 206.464844 139.988281 210.589844 L 224.210938 287.445312 L 308.429688 210.589844 C 313.113281 206.464844 316.851562 201.527344 319.417969 196.066406 C 321.988281 190.609375 323.339844 184.734375 323.394531 178.796875 C 323.449219 172.855469 322.207031 166.964844 319.742188 161.464844 C 317.273438 155.96875 313.632812 150.972656 309.023438 146.773438 C 304.417969 142.574219 298.941406 139.25 292.914062 137.003906 C 286.886719 134.753906 280.425781 133.625 273.914062 133.675781 C 267.402344 133.730469 260.964844 134.964844 254.984375 137.3125 C 249 139.65625 243.585938 143.066406 239.0625 147.339844 L 224.210938 160.890625 Z M 209.355469 147.339844 "/>
</g>
</svg>
