<svg width="238" height="219" viewBox="0 0 238 219" fill="none" xmlns="http://www.w3.org/2000/svg">
<path d="M0.492868 149.125C-3.06494 122.562 13.5382 79.9843 21.4444 22.5624C23.0257 12.4061 76.7882 1.46863 102.088 1.46863C108.413 1.46863 113.948 30.7655 112.366 40.9218C111.18 48.3436 100.507 46.3905 100.507 46.3905C96.9491 56.1561 86.2757 52.2499 86.2757 52.2499C83.1132 60.453 73.6257 56.5468 73.6257 56.5468C69.6726 64.3593 60.9757 60.453 60.9757 60.453C53.0694 94.4374 67.696 91.3124 78.3694 142.484C78.3694 142.484 81.5319 142.094 89.8335 125.297C123.83 57.7186 243.215 79.203 236.099 151.859C234.518 167.875 251.912 194.437 187.476 214.359C136.48 229.984 74.021 199.906 74.021 199.906C52.6741 206.547 11.1663 206.156 9.98037 190.531C8.79443 172.172 2.46943 162.797 0.492868 149.125" fill="#4CB648"/>
<path d="M236.494 151.859C238.076 134.672 232.937 120.609 223.449 110.453C228.984 119.828 231.751 131.156 230.565 144.437C228.984 160.453 246.377 187.016 181.941 206.937C130.946 222.562 68.4867 192.484 68.4867 192.484C51.8835 197.562 22.6304 198.344 10.3757 190.922C11.957 206.156 53.0695 206.547 74.4164 199.906C74.4164 199.906 136.876 229.984 187.871 214.359C251.912 194.437 234.913 167.875 236.494 151.859ZM56.6273 60.0624C46.7445 99.9062 62.9523 98.3437 73.6257 148.734L79.1601 142.875C71.2539 92.0937 57.8132 98.3437 60.9757 60.8437C58.6039 60.8437 56.6273 60.0624 56.6273 60.0624" fill="#67EF51"/>
<path d="M107.623 173.734C140.434 185.844 189.848 173.344 217.915 160.453C205.66 189.75 140.434 205.375 107.623 173.734M91.4148 12.4062C89.043 8.10929 84.2992 8.49991 81.1367 9.67179C81.532 4.98429 92.9961 1.46866 91.4148 12.4062Z" fill="#67EF51"/>
<path d="M115.529 29.2031C114.343 20.6093 111.576 12.0156 106.437 4.98431C109.204 12.4062 110.785 20.2187 110.785 28.0312C110.785 31.5468 111.576 44.0468 105.251 42.4843C101.298 41.3124 101.298 38.1874 100.112 34.6718C98.5305 29.2031 95.368 23.3437 95.7633 17.8749C94.1821 23.3437 96.1586 29.9843 96.554 35.4531C96.9493 38.5781 99.3211 47.5624 94.9727 48.7343C92.6008 49.5156 89.8336 47.9531 87.8571 46.7812C87.0665 46.3906 86.6711 43.2656 86.2758 42.0937C84.6946 36.6249 81.5321 30.3749 81.9274 24.5156C80.3461 29.5937 81.9274 35.8437 82.3227 41.3124C82.718 44.4374 84.2993 51.8593 80.3461 53.4218C75.6024 55.7656 75.2071 50.2968 74.4165 47.5624C72.8352 42.4843 70.4633 36.6249 70.4633 31.1562C68.8821 37.7968 70.8586 45.6093 70.8586 52.2499C70.8586 55.7656 63.3477 58.4999 60.5805 56.5468C56.2321 53.4218 55.4415 45.6093 54.6508 40.5312C55.8368 42.0937 57.8133 44.4374 60.1852 44.0468C58.2086 41.7031 57.0227 38.1874 55.8368 35.4531C54.6508 33.1093 51.8836 28.0312 48.7211 28.0312C49.1165 28.8124 51.8836 35.4531 51.4883 35.8437C50.3024 37.7968 49.1165 40.1406 47.5352 42.0937C46.3493 43.6562 42.7915 49.1249 40.0243 47.5624C36.8618 45.6093 36.0711 40.9218 35.2805 37.7968C35.6758 41.7031 35.2805 47.5624 39.2336 49.9062C42.7915 52.2499 47.1399 48.7343 49.5118 46.3906C50.3024 54.2031 53.8602 64.7499 63.743 63.9687C65.7196 63.9687 68.0915 63.1874 70.068 62.4062C71.6493 61.6249 73.6258 59.6718 75.2071 60.4531C79.5555 61.6249 83.904 60.8437 87.0665 57.7187C88.6477 56.1562 88.2524 55.3749 90.229 55.7656C92.6008 56.1562 94.9727 56.5468 96.9493 55.7656C98.9258 55.3749 100.507 54.2031 101.693 52.6406C102.484 51.8593 102.879 51.0781 103.274 49.9062C104.065 48.3437 104.856 49.1249 106.437 49.1249C116.715 49.1249 116.32 36.2343 115.529 29.2031" fill="#67EF51"/>
<path d="M105.646 6.93742C103.274 2.64054 98.5304 3.03117 95.3679 4.20304C95.7632 -0.0938317 107.623 -3.60946 105.646 6.93742ZM79.9507 18.2655C77.5788 13.9687 72.8351 14.3593 69.6726 15.5312C70.0679 10.8437 81.5319 7.32804 79.9507 18.2655ZM66.5101 24.5155C64.1382 20.2187 59.3944 20.6093 56.2319 21.7812C56.6272 17.0937 68.4866 13.578 66.5101 24.5155Z" fill="#67EF51"/>
</svg>
